<?xml version="1.0" encoding="UTF-8"?>
<svg width="501px" height="500px" viewBox="0 0 501 500" version="1.1" xmlns="http://www.w3.org/2000/svg" xmlns:xlink="http://www.w3.org/1999/xlink">
    <!-- Generator: Sketch 49.3 (51167) - http://www.bohemiancoding.com/sketch -->
    <title>Capture d’écran 2018-03-30 à 10.47.51</title>
    <desc>Created with Sketch.</desc>
    <defs>
        <path d="M117.845462,420.104341 C121.228046,419.503336 124.986417,419.033808 129.120686,418.695743 C133.254956,418.357678 137.389164,418.188648 141.523433,418.188648 C145.732872,418.188648 149.979831,418.507927 154.264437,419.146494 C158.549044,419.785062 162.401374,421.062177 165.821543,422.97788 C169.241711,424.893582 172.041697,427.5605 174.221585,430.978715 C176.401473,434.396929 177.4914,438.923177 177.4914,444.557596 C177.4914,449.515885 176.551807,453.741635 174.672594,457.234975 C172.79338,460.728315 170.294064,463.564263 167.17457,465.742905 C164.055075,467.921547 160.503415,469.517942 156.519482,470.532137 C152.53555,471.546332 148.438926,472.053422 144.229487,472.053422 L142.312699,472.053422 C141.410677,472.053422 140.452292,472.034641 139.437517,471.997078 C138.422742,471.959516 137.464357,471.903172 136.562335,471.828047 C135.660312,471.752921 134.983805,471.677797 134.532794,471.602671 L134.532794,498.196995 L117.845462,498.196995 L117.845462,420.104341 Z M142.650956,432.838063 C141.072417,432.838063 139.550276,432.875626 138.08449,432.950751 C136.618703,433.025877 135.434817,433.176126 134.532794,433.401503 L134.532794,456.840568 C134.833468,456.915693 135.322057,456.990818 135.998573,457.065943 C136.67509,457.141069 137.389181,457.197412 138.140866,457.234975 C138.892551,457.272538 139.58785,457.3101 140.226783,457.347663 C140.865715,457.385226 141.373095,457.404007 141.748938,457.404007 C143.928826,457.404007 146.108681,457.253758 148.288568,456.953255 C150.468456,456.652753 152.404017,456.014195 154.095309,455.037563 C155.786601,454.06093 157.158406,452.727471 158.210766,451.037145 C159.263126,449.34682 159.789297,447.074305 159.789297,444.219533 C159.789297,441.815514 159.300709,439.881059 158.323518,438.41611 C157.346327,436.951161 156.049689,435.805513 154.433566,434.979132 C152.817442,434.15275 150.97584,433.589317 148.908706,433.288815 C146.841571,432.988312 144.755675,432.838063 142.650956,432.838063 Z M186.542902,439.035893 L202.328216,439.035893 L202.328216,498.196995 L186.542902,498.196995 L186.542902,439.035893 Z M184.175105,426.30217 C184.175105,423.898152 185.03953,421.888572 186.768406,420.273372 C188.497283,418.658172 190.940224,417.850584 194.097302,417.850584 C197.32955,417.850584 199.885242,418.676953 201.764455,420.329716 C203.643669,421.982479 204.583261,423.973277 204.583261,426.30217 C204.583261,428.480812 203.643669,430.358924 201.764455,431.936561 C199.885242,433.514198 197.32955,434.303005 194.097302,434.303005 C190.940224,434.303005 188.497283,433.514198 186.768406,431.936561 C185.03953,430.358924 184.175105,428.480812 184.175105,426.30217 Z M229.983839,467.883973 L210.590453,439.035893 L229.758334,439.035893 L237.763744,450.53005 L237.650992,450.417362 L242.273834,460.897329 L246.783924,450.417362 L246.671171,450.53005 L255.240342,439.035893 L272.604188,439.035893 L253.098049,467.433222 L273.844463,498.196995 L255.12759,498.196995 L245.543649,484.899833 L245.656401,485.012521 L240.920807,474.645242 L235.959708,485.012521 L236.07246,484.899833 L226.375767,498.196995 L209.011921,498.196995 L229.983839,467.883973 Z M326.30558,492.78798 C323.749849,494.741245 320.273356,496.412764 315.875997,497.802588 C311.478637,499.192411 306.761882,499.887312 301.72559,499.887312 C291.577837,499.887312 284.136263,497.107707 279.400645,491.548414 C274.665027,485.989121 272.297253,478.363988 272.297253,468.672788 C272.297253,458.380583 274.965697,450.58642 280.302663,445.290067 C285.639629,439.993713 293.156371,437.345576 302.853112,437.345576 C306.010191,437.345576 309.129639,437.739979 312.211549,438.528798 C315.293459,439.317617 318.037069,440.632295 320.442463,442.472871 C322.847856,444.313448 324.783417,446.792555 326.249203,449.910267 C327.71499,453.027979 328.447872,456.878107 328.447872,461.460768 C328.447872,463.038405 328.353913,464.766268 328.165992,466.644407 C327.97807,468.522547 327.658609,470.475783 327.207598,472.504174 L287.744311,472.504174 C288.120154,477.612713 289.60471,481.387717 292.198025,483.829299 C294.79134,486.27088 299.019507,487.491653 304.882653,487.491653 C308.415574,487.491653 311.591397,486.984563 314.410218,485.970367 C317.229038,484.956172 319.390101,483.923211 320.893472,482.871452 L326.30558,492.78798 Z M302.627608,449.741235 C297.967158,449.741235 294.509457,450.99957 292.254401,453.516277 C289.999345,456.032984 288.683915,459.244555 288.308072,463.151085 L313.79008,463.151085 C314.090754,459.019178 313.33908,455.751264 311.535035,453.347245 C309.73099,450.943227 306.761878,449.741235 302.627608,449.741235 Z M354.86322,477.462437 C354.86322,483.171982 356.704822,486.026711 360.38808,486.026711 C361.44044,486.026711 362.436408,485.932806 363.376015,485.744992 C364.315621,485.557178 365.424341,485.237899 366.702206,484.787145 L368.618994,497.070117 C367.115623,497.746247 364.992144,498.403586 362.248492,499.042154 C359.50484,499.680721 356.667271,500 353.735698,500 C349.00008,500 345.373252,498.948258 342.855106,496.844741 C340.33696,494.741225 339.077906,491.2855 339.077906,486.477462 L339.077906,419.315526 L354.86322,419.315526 L354.86322,477.462437 Z M372.709397,482.871452 C373.761757,483.397332 374.983227,483.923203 376.373845,484.449082 C377.764463,484.974961 379.267811,485.46327 380.883935,485.914023 C382.500059,486.364777 384.153742,486.740399 385.845034,487.040902 C387.536326,487.341404 389.246385,487.491653 390.975261,487.491653 C393.60616,487.491653 395.654472,487.078468 397.120258,486.252087 C398.586045,485.425705 399.318927,483.885654 399.318927,481.631886 C399.318927,479.828872 398.341751,478.495413 396.387369,477.631469 C394.432987,476.767525 392.02763,475.922375 389.171225,475.095993 C387.066506,474.494989 384.867859,473.781306 382.575219,472.954925 C380.282578,472.128543 378.177891,471.020458 376.261093,469.630634 C374.344295,468.240811 372.765779,466.419043 371.525498,464.165275 C370.285218,461.911508 369.665086,459.056779 369.665086,455.601002 C369.665086,449.666081 371.506688,445.139832 375.189947,442.02212 C378.873205,438.904408 384.172508,437.345576 391.088013,437.345576 C395.598126,437.345576 399.826293,437.739979 403.772641,438.528798 C407.718989,439.317617 410.894813,440.237891 413.300206,441.289649 L410.030391,453.234558 C408.076009,452.483302 405.576692,451.713276 402.532366,450.924457 C399.48804,450.135639 396.387385,449.741235 393.230306,449.741235 C390.599407,449.741235 388.645054,450.135639 387.367189,450.924457 C386.089324,451.713276 385.450401,453.084297 385.450401,455.037563 C385.450401,456.765451 386.446369,458.061348 388.438335,458.925292 C390.430302,459.789236 392.854451,460.634387 395.710855,461.460768 C397.815575,462.061773 400.014221,462.756674 402.306862,463.545492 C404.599502,464.334311 406.685398,465.404835 408.564612,466.757095 C410.443825,468.109356 412.003549,469.855999 413.24383,471.997078 C414.484111,474.138158 415.104242,476.823857 415.104242,480.054257 C415.104242,486.364806 413.05593,491.247896 408.959244,494.703673 C404.862559,498.15945 398.717623,499.887312 390.524252,499.887312 C386.089308,499.887312 381.9551,499.492909 378.121505,498.70409 C374.287909,497.915272 371.168462,496.769624 368.763068,495.267112 L372.709397,482.871452 Z M255.725515,388.240401 C255.725515,390.139408 255.748135,392.106209 255.793375,394.14086 C255.838615,396.175511 256.042194,398.390987 256.404116,400.787354 L249.821682,400.787354 L248.464479,395.836394 L247.582297,395.836394 C246.54177,397.644973 245.060171,399.080511 243.137457,400.143051 C241.214744,401.205591 238.918831,401.736853 236.249652,401.736853 C231.499418,401.736853 227.812387,400.256101 225.188448,397.294553 C222.564509,394.333006 221.252559,389.755109 221.252559,383.560726 C221.252559,380.576571 221.625787,377.88635 222.372252,375.489983 C223.118717,373.093616 224.227089,371.058996 225.697399,369.38606 C227.16771,367.713125 228.988606,366.424532 231.160141,365.520242 C233.331677,364.615953 235.842477,364.163815 238.692618,364.163815 C240.276029,364.163815 241.644528,364.288153 242.798157,364.536832 C243.951785,364.785512 245.094086,365.090705 246.225094,365.452421 L246.225094,353.244574 L255.725515,353.244574 L255.725515,388.240401 Z M238.692618,393.801753 C240.818913,393.801753 242.47016,393.315705 243.646408,392.343593 C244.822657,391.371482 245.68221,389.981158 246.225094,388.172579 L246.225094,373.930092 C245.410768,373.297089 244.539905,372.833648 243.612478,372.539754 C242.685052,372.24586 241.474891,372.098915 239.98196,372.098915 C236.950859,372.098915 234.700186,372.980584 233.229876,374.743948 C231.759565,376.507313 231.024421,379.536637 231.024421,383.832012 C231.024421,386.816167 231.646466,389.223801 232.890575,391.054987 C234.134684,392.886174 236.068679,393.801753 238.692618,393.801753 Z M292.458737,397.464107 C290.920566,398.639683 288.828232,399.64569 286.181673,400.482158 C283.535114,401.318625 280.696327,401.736853 277.665225,401.736853 C271.557781,401.736853 267.079056,400.063943 264.228915,396.718072 C261.378775,393.372201 259.953726,388.783001 259.953726,382.950334 C259.953726,376.755951 261.559734,372.06502 264.771797,368.8774 C267.98386,365.68978 272.507824,364.095993 278.343826,364.095993 C280.24392,364.095993 282.121365,364.333366 283.976219,364.808118 C285.831072,365.28287 287.482319,366.074111 288.930009,367.181866 C290.3777,368.28962 291.542621,369.781675 292.424807,371.658076 C293.306993,373.534477 293.74808,375.851683 293.74808,378.609766 C293.74808,379.55927 293.69153,380.599187 293.57843,381.729549 C293.465329,382.859911 293.27306,384.03547 293.001618,385.25626 L269.250566,385.25626 C269.476768,388.330845 270.370251,390.602838 271.931042,392.072308 C273.491834,393.541778 276.036564,394.276503 279.565309,394.276503 C281.691604,394.276503 283.602979,393.971309 285.299492,393.360914 C286.996004,392.750519 288.296644,392.128829 289.20145,391.495826 L292.458737,397.464107 Z M278.208106,371.556344 C275.403206,371.556344 273.322182,372.313675 271.964972,373.82836 C270.607763,375.343045 269.816069,377.275934 269.589867,379.627087 L284.926261,379.627087 C285.107222,377.140291 284.654826,375.173491 283.569058,373.726628 C282.48329,372.279765 280.696324,371.556344 278.208106,371.556344 Z M130.117302,287.867279 L131.921338,271.527546 L131.244825,271.527546 L125.832717,283.923205 L107.566853,313.334725 L102.38025,313.334725 L82.9868631,283.810518 L77.6875075,271.640234 L77.010994,271.640234 L79.3787912,287.754591 L79.3787912,327.420701 L63.5934767,327.420701 L63.5934767,248.539232 L78.7022777,248.539232 L101.478232,284.937396 L105.762817,293.614357 L106.326578,293.614357 L110.047402,284.71202 L131.808586,248.539232 L146.804635,248.539232 L146.804635,327.420701 L130.117302,327.420701 L130.117302,287.867279 Z M160.253475,268.259599 L176.038789,268.259599 L176.038789,327.420701 L160.253475,327.420701 L160.253475,268.259599 Z M157.885678,255.525876 C157.885678,253.121858 158.750103,251.112279 160.478979,249.497078 C162.207856,247.881878 164.650797,247.07429 167.807875,247.07429 C171.040123,247.07429 173.595815,247.90066 175.475028,249.553422 C177.354242,251.206185 178.293834,253.196983 178.293834,255.525876 C178.293834,257.704518 177.354242,259.58263 175.475028,261.160267 C173.595815,262.737904 171.040123,263.526711 167.807875,263.526711 C164.650797,263.526711 162.207856,262.737904 160.478979,261.160267 C158.750103,259.58263 157.885678,257.704518 157.885678,255.525876 Z M206.287714,306.686144 C206.287714,312.395688 208.129316,315.250417 211.812574,315.250417 C212.864934,315.250417 213.860902,315.156512 214.800509,314.968698 C215.740116,314.780884 216.848835,314.461605 218.1267,314.010851 L220.043488,326.293823 C218.540118,326.969953 216.416638,327.627292 213.672986,328.26586 C210.929335,328.904427 208.091765,329.223706 205.160192,329.223706 C200.424574,329.223706 196.797746,328.171964 194.2796,326.068447 C191.761454,323.964931 190.5024,320.509206 190.5024,315.701169 L190.5024,248.539232 L206.287714,248.539232 L206.287714,306.686144 Z M240.370216,306.686144 C240.370216,312.395688 242.211817,315.250417 245.895076,315.250417 C246.947435,315.250417 247.943403,315.156512 248.88301,314.968698 C249.822617,314.780884 250.931336,314.461605 252.209201,314.010851 L254.12599,326.293823 C252.622619,326.969953 250.499139,327.627292 247.755488,328.26586 C245.011836,328.904427 242.174266,329.223706 239.242693,329.223706 C234.507075,329.223706 230.880247,328.171964 228.362101,326.068447 C225.843955,323.964931 224.584901,320.509206 224.584901,315.701169 L224.584901,248.539232 L240.370216,248.539232 L240.370216,306.686144 Z M260.245934,268.259599 L276.031248,268.259599 L276.031248,327.420701 L260.245934,327.420701 L260.245934,268.259599 Z M257.878137,255.525876 C257.878137,253.121858 258.742562,251.112279 260.471438,249.497078 C262.200315,247.881878 264.643256,247.07429 267.800334,247.07429 C271.032582,247.07429 273.588274,247.90066 275.467487,249.553422 C277.346701,251.206185 278.286293,253.196983 278.286293,255.525876 C278.286293,257.704518 277.346701,259.58263 275.467487,261.160267 C273.588274,262.737904 271.032582,263.526711 267.800334,263.526711 C264.643256,263.526711 262.200315,262.737904 260.471438,261.160267 C258.742562,259.58263 257.878137,257.704518 257.878137,255.525876 Z M286.774035,297.896494 C286.774035,288.130168 289.36731,280.467474 294.55394,274.90818 C299.740569,269.348887 307.144559,266.569282 316.766132,266.569282 C321.802424,266.569282 326.199718,267.358089 329.958145,268.935726 C333.716572,270.513363 336.83602,272.710754 339.316581,275.527963 C341.797143,278.345173 343.657537,281.650649 344.897818,285.444491 C346.138099,289.238333 346.75823,293.388959 346.75823,297.896494 C346.75823,302.704532 346.081723,307.042969 344.728689,310.911937 C343.375656,314.780904 341.421303,318.067599 338.865572,320.77212 C336.309842,323.476641 333.171603,325.542564 329.45076,326.96995 C325.729917,328.397336 321.50175,329.111018 316.766132,329.111018 C311.654671,329.111018 307.219794,328.322212 303.461367,326.744574 C299.70294,325.166937 296.583492,322.969547 294.102931,320.152337 C291.622369,317.335128 289.780767,314.029652 288.57807,310.23581 C287.375374,306.441968 286.774035,302.328904 286.774035,297.896494 Z M303.010358,297.896494 C303.010358,300.375638 303.273444,302.704497 303.799624,304.883139 C304.325804,307.061781 305.133853,308.958673 306.223797,310.573873 C307.313741,312.189073 308.72313,313.48497 310.452006,314.461603 C312.180883,315.438235 314.28557,315.926544 316.766132,315.926544 C325.936694,315.926544 330.521906,309.916588 330.521906,297.896494 C330.521906,295.267099 330.277612,292.844335 329.789017,290.62813 C329.300421,288.411925 328.511163,286.496252 327.421219,284.881052 C326.331276,283.265852 324.903095,282.007517 323.136634,281.10601 C321.370173,280.204503 319.246694,279.753756 316.766132,279.753756 C312.481525,279.753756 309.117784,281.181121 306.674806,284.035893 C304.231828,286.890665 303.010358,291.510819 303.010358,297.896494 Z M395.611275,327.420701 L395.611275,294.966611 C395.611275,289.858071 394.822017,286.176973 393.243478,283.923205 C391.664939,281.669438 388.883745,280.542571 384.899812,280.542571 C381.517228,280.542571 378.642074,281.462846 376.274265,283.303422 C373.906456,285.143999 372.271565,287.491638 371.369542,290.346411 C371.369542,296.506709 371.388334,302.685695 371.425918,308.883556 C371.463503,315.081417 371.482295,321.260403 371.482295,327.420701 L355.69698,327.420701 L355.69698,268.259599 L368.099727,268.259599 L369.791011,276.711185 L371.482295,276.711185 C373.436677,273.931539 376.029952,271.546337 379.2622,269.555509 C382.494447,267.564681 386.703822,266.569282 391.890451,266.569282 C395.04753,266.569282 397.847516,266.963686 400.290494,267.752504 C402.733471,268.541323 404.762991,269.893563 406.379115,271.809265 C407.995238,273.724968 409.235501,276.297981 410.099939,279.528381 C410.964377,282.758781 411.39659,286.815501 411.39659,291.698664 L411.39659,327.420701 L395.611275,327.420701 Z M423.605155,312.095159 C424.657515,312.621038 425.878985,313.146909 427.269603,313.672788 C428.660221,314.198667 430.16357,314.686976 431.779693,315.13773 C433.395817,315.588483 435.0495,315.964105 436.740792,316.264608 C438.432084,316.56511 440.142143,316.715359 441.871019,316.715359 C444.501918,316.715359 446.55023,316.302174 448.016017,315.475793 C449.481803,314.649412 450.214685,313.10936 450.214685,310.855593 C450.214685,309.052579 449.237509,307.71912 447.283127,306.855175 C445.328745,305.991231 442.923388,305.146081 440.066983,304.319699 C437.962264,303.718695 435.763617,303.005012 433.470977,302.178631 C431.178336,301.35225 429.073649,300.244164 427.156851,298.854341 C425.240053,297.464517 423.661538,295.642749 422.421257,293.388982 C421.180976,291.135214 420.560845,288.280485 420.560845,284.824708 C420.560845,278.889787 422.402446,274.363538 426.085705,271.245826 C429.768963,268.128115 435.068266,266.569282 441.983771,266.569282 C446.493884,266.569282 450.722051,266.963686 454.668399,267.752504 C458.614748,268.541323 461.790571,269.461597 464.195964,270.513356 L460.926149,282.458264 C458.971767,281.707008 456.47245,280.936982 453.428125,280.148164 C450.383799,279.359345 447.283143,278.964942 444.126064,278.964942 C441.495165,278.964942 439.540813,279.359345 438.262947,280.148164 C436.985082,280.936982 436.346159,282.308004 436.346159,284.261269 C436.346159,285.989157 437.342127,287.285054 439.334094,288.148998 C441.32606,289.012943 443.750209,289.858093 446.606614,290.684474 C448.711333,291.285479 450.90998,291.98038 453.20262,292.769199 C455.49526,293.558017 457.581156,294.628541 459.46037,295.980801 C461.339583,297.333062 462.899307,299.079705 464.139588,301.220785 C465.379869,303.361864 466,306.047563 466,309.277963 C466,315.588512 463.951688,320.471602 459.855003,323.927379 C455.758317,327.383156 449.613381,329.111018 441.42001,329.111018 C436.985066,329.111018 432.850859,328.716615 429.017263,327.927796 C425.183668,327.138978 422.06422,325.99333 419.658827,324.490818 L423.605155,312.095159 Z M174.089469,156.560935 L138.309423,156.560935 L138.309423,214.557596 L98.9213044,214.557596 L98.9213044,156.560935 L5.68434189e-14,156.560935 L5.68434189e-14,133.12187 L103.431394,2.70450751 L138.309423,2.70450751 L138.309423,123.806344 L174.089469,123.806344 L174.089469,156.560935 Z M98.9213044,80.5342237 L101.326686,56.1936561 L100.123995,56.1936561 L89.2997793,76.6277129 L55.9251143,115.392321 L39.0874455,126.510851 L60.1345315,123.806344 L98.9213044,123.806344 L98.9213044,80.5342237 Z M180.487115,162.570952 C180.487115,155.55923 181.489347,149.298859 183.493841,143.789649 C185.498336,138.28044 188.304586,133.322226 191.912676,128.914858 C195.520766,124.50749 199.730141,120.550936 204.540927,117.045075 C209.351714,113.539215 214.663544,110.283821 220.476578,107.278798 C209.652308,101.068416 201.28367,93.9566344 195.370411,85.9432387 C189.457153,77.9298431 186.500568,67.9132487 186.500568,55.8931553 C186.500568,48.2804294 188.054028,41.0684815 191.160994,34.2570952 C194.26796,27.4457088 198.778005,21.4858352 204.691264,16.3772955 C210.604522,11.2687558 217.820594,7.26211803 226.339695,4.3572621 C234.858796,1.45240618 244.530337,0 255.354607,0 C265.176629,0 274.096495,1.25207429 282.114473,3.75626043 C290.132451,6.26044658 296.997741,9.76625459 302.71055,14.2737896 C308.423359,18.7813247 312.833181,24.1902856 315.940147,30.5008347 C319.047113,36.8113838 320.600573,43.6727509 320.600573,51.0851419 C320.600573,62.9049005 317.844435,72.8714119 312.332075,80.984975 C306.819716,89.0985381 298.350854,96.5609008 286.925236,103.372287 C299.754,110.384008 309.575875,117.99662 316.391156,126.210351 C323.206437,134.424081 326.614026,145.041671 326.614026,158.063439 C326.614026,167.078509 324.810008,175.292117 321.201919,182.704508 C317.593829,190.116898 312.532556,196.477436 306.017949,201.786311 C299.503343,207.095185 291.685932,211.252072 282.565482,214.257095 C273.445032,217.262119 263.372599,218.764608 252.34788,218.764608 C241.52361,218.764608 231.651623,217.412367 222.731623,214.707846 C213.811623,212.003325 206.24477,208.146937 200.030838,203.138564 C193.816905,198.130192 189.00619,192.170318 185.59855,185.258765 C182.190909,178.347211 180.487115,170.784682 180.487115,162.570952 Z M286.32389,158.36394 C286.32389,153.956572 285.0711,149.949935 282.565482,146.343907 C280.059864,142.737878 276.852721,139.432402 272.943957,136.427379 C269.035193,133.422356 264.675483,130.617709 259.864696,128.013356 C255.05391,125.409002 250.243195,123.005019 245.432409,120.801336 C235.409937,126.010043 228.544646,131.719502 224.836332,137.929883 C221.128017,144.140265 219.273888,150.050055 219.273888,155.659432 C219.273888,163.472493 222.230472,170.083445 228.143731,175.492487 C234.056989,180.90153 242.425628,183.60601 253.249898,183.60601 C263.27237,183.60601 271.290227,181.452442 277.303711,177.145242 C283.317194,172.838042 286.32389,166.57767 286.32389,158.36394 Z M226.790704,56.4941569 C226.790704,61.3021943 227.843048,65.5091639 229.947767,69.115192 C232.052486,72.72122 234.808625,75.8764472 238.216265,78.5809683 C241.623906,81.2854893 245.482499,83.7395549 249.792162,85.9432387 C254.101825,88.1469225 258.561758,90.2504073 263.172096,92.2537563 C275.80041,82.2370117 282.114473,71.3189239 282.114473,59.4991653 C282.114473,51.4857696 279.408446,45.4257301 273.996311,41.3188648 C268.584176,37.2119995 262.069667,35.1585977 254.452589,35.1585977 C244.831015,35.1585977 237.81539,37.2620825 233.405503,41.4691152 C228.995615,45.6761479 226.790704,50.6844451 226.790704,56.4941569 Z M340.829161,109.081803 C340.829161,73.2218574 347.694452,46.0768868 361.425239,27.6460768 C375.156025,9.21526678 394.849887,0 420.507416,0 C447.968989,0 468.163967,9.06501786 481.092956,27.1953255 C494.021945,45.3256332 500.486343,72.6208528 500.486343,109.081803 C500.486343,144.741414 493.570941,171.936467 479.739929,190.66778 C465.908918,209.399092 446.164944,218.764608 420.507416,218.764608 C406.876854,218.764608 395.050514,216.210376 385.028042,211.101836 C375.00557,205.993297 366.737155,198.681183 360.222548,189.165275 C353.707941,179.649368 348.847115,168.130285 345.639924,154.607679 C342.432733,141.085074 340.829161,125.909934 340.829161,109.081803 Z M384.126024,109.081803 C384.126024,132.120316 386.932274,150.300434 392.544859,163.622705 C398.157443,176.944975 407.478202,183.60601 420.507416,183.60601 C433.737079,183.60601 443.158061,177.596053 448.770646,165.57596 C454.38323,153.555866 457.18948,134.724669 457.18948,109.081803 C457.18948,97.6627142 456.538029,87.395705 455.235108,78.2804674 C453.932186,69.1652299 451.87761,61.4023693 449.071318,54.9916528 C446.265026,48.5809362 442.506655,43.672805 437.796094,40.2671119 C433.085532,36.8614187 427.322697,35.1585977 420.507416,35.1585977 C407.478202,35.1585977 398.157443,41.4189691 392.544859,53.9398998 C386.932274,66.4608306 384.126024,84.8412811 384.126024,109.081803 Z" id="path-1"></path>
           <filter x="-0.6%" y="-0.6%" width="101.1%" height="101.2%" filterUnits="objectBoundingBox" id="filter-3">
            <feGaussianBlur stdDeviation="1.5" in="SourceAlpha" result="shadowBlurInner1"></feGaussianBlur>
            <feOffset dx="0" dy="1" in="shadowBlurInner1" result="shadowOffsetInner1"></feOffset>
            <feComposite in="shadowOffsetInner1" in2="SourceAlpha" operator="arithmetic" k2="-1" k3="1" result="shadowInnerInner1"></feComposite>
            <feColorMatrix values="0 0 0 0 0   0 0 0 0 0   0 0 0 0 0  0 0 0 0.5 0" type="matrix" in="shadowInnerInner1"></feColorMatrix>
        </filter>
        <filter x="-0.6%" y="-0.6%" width="101.1%" height="101.2%" filterUnits="objectBoundingBox" id="filter-4">
            <feGaussianBlur stdDeviation="1.5" in="SourceAlpha" result="shadowBlurInner1"></feGaussianBlur>
            <feOffset dx="0" dy="1" in="shadowBlurInner1" result="shadowOffsetInner1"></feOffset>
            <feComposite in="shadowOffsetInner1" in2="SourceAlpha" operator="arithmetic" k2="-1" k3="1" result="shadowInnerInner1"></feComposite>
            <feColorMatrix values="0 0 0 0 0   0 0 0 0 0   0 0 0 0 0  0 0 0 0.5 0" type="matrix" in="shadowInnerInner1"></feColorMatrix>
        </filter>
    </defs>
      <g id="Page-1" stroke="none" stroke-width="1" fill="none" fill-rule="evenodd">
    <g id="Capture-d’écran-2018-03-30-à-10.47.51" transform="translate(10, 70)">
                <mask id="mask-2" fill="white">
                    <use xlink:href="#path-1"></use>
                </mask>
                <g id="pixels" style="mask: url(#mask-2)">
                </g>
                 <g id="Mask">
                    <!-- <use fill-opacity="0.362601902" fill="black" fill-rule="evenodd" xlink:href="#path-1"></use> -->
                    <use fill="black" fill-opacity="1" 
                    xlink:href="#path-1"></use>
                </g>
</svg>