<svg id="svg500mpix" width="468px" height="421px" viewBox="0 0 468 421" version="1.1" xmlns="http://www.w3.org/2000/svg" xmlns:xlink="http://www.w3.org/1999/xlink">

    <!-- Generator: Sketch 49.2 (51160) - http://www.bohemiancoding.com/sketch -->
    <desc>Created with Sketch.</desc>
    <defs>
        <path d="M48.564,293.32 C62.3880691,293.32 72.995963,290.584027 80.388,285.112 C87.780037,279.639973 91.476,271.720052 91.476,261.352 C91.476,250.215944 87.1560432,242.056026 78.516,236.872 C69.8759568,231.687974 57.5880797,229.096 41.652,229.096 L16.596,230.248 L16.596,123.4 L124.308,123.4 L124.308,160.84 L51.732,160.84 L51.732,196.552 L64.692,195.4 C74.8680509,195.784002 84.0839587,197.559984 92.34,200.728 C100.596041,203.896016 107.651971,208.263972 113.508,213.832 C119.364029,219.400028 123.875984,226.119961 127.044,233.992 C130.212016,241.864039 131.796,250.599952 131.796,260.2 C131.796,271.528057 129.684021,281.511957 125.46,290.152 C121.235979,298.792043 115.428037,305.991971 108.036,311.752 C100.643963,317.512029 91.9080504,321.831986 81.828,324.712 C71.7479496,327.592014 60.8520586,329.032 49.14,329.032 C39.731953,329.032 30.7560427,328.264008 22.212,326.728 C13.6679573,325.191992 6.5160288,323.176012 0.756,320.68 L11.7,287.272 C16.500024,289.000009 21.7319717,290.439994 27.396,291.592 C33.0600283,292.744006 40.1159578,293.32 48.564,293.32 Z M144.036,223.912 C144.036,189.543828 150.611934,163.528088 163.764,145.864 C176.916066,128.199912 195.779877,119.368 220.356,119.368 C246.660132,119.368 266.003938,128.055913 278.388,145.432 C290.772062,162.808087 296.964,188.967825 296.964,223.912 C296.964,258.088171 290.340066,284.15191 277.092,302.104 C263.843934,320.05609 244.932123,329.032 220.356,329.032 C207.299935,329.032 195.972048,326.584024 186.372,321.688 C176.771952,316.791976 168.852031,309.784046 162.612,300.664 C156.371969,291.543954 151.716015,280.504065 148.644,267.544 C145.571985,254.583935 144.036,240.040081 144.036,223.912 Z M252.836131,210.824737 C261.107486,231.297059 265.14232,248.459081 264.940756,262.311319 C264.739192,276.163557 258.852841,285.427094 247.281529,290.102207 C235.532197,294.849246 225.007661,292.889136 215.707606,284.22182 C206.407551,275.554504 197.154474,259.827789 187.948096,237.041205 C183.848381,226.894054 180.740846,217.536904 178.625397,208.969474 C176.509949,200.402044 175.547583,192.766647 175.738272,186.063053 C175.92896,179.359459 177.504657,173.64946 180.465409,168.932883 C183.426162,164.216307 187.932813,160.63535 193.9855,158.189906 C205.556812,153.514792 216.082244,155.733386 225.562111,164.845752 C235.041978,173.958119 244.133227,189.284294 252.836131,210.824737 Z M314.244,223.912 C314.244,189.543828 320.819934,163.528088 333.972,145.864 C347.124066,128.199912 365.987877,119.368 390.564,119.368 C416.868132,119.368 436.211938,128.055913 448.596,145.432 C460.980062,162.808087 467.172,188.967825 467.172,223.912 C467.172,258.088171 460.548066,284.15191 447.3,302.104 C434.051934,320.05609 415.140123,329.032 390.564,329.032 C377.507935,329.032 366.180048,326.584024 356.58,321.688 C346.979952,316.791976 339.060031,309.784046 332.82,300.664 C326.579969,291.543954 321.924015,280.504065 318.852,267.544 C315.779985,254.583935 314.244,240.040081 314.244,223.912 Z M358.371869,210.824737 C350.100514,231.297059 346.06568,248.459081 346.267244,262.311319 C346.468808,276.163557 352.355159,285.427094 363.926471,290.102207 C375.675803,294.849246 386.200339,292.889136 395.500394,284.22182 C404.800449,275.554504 414.053526,259.827789 423.259904,237.041205 C427.359619,226.894054 430.467154,217.536904 432.582603,208.969474 C434.698051,200.402044 435.660417,192.766647 435.469728,186.063053 C435.27904,179.359459 433.703343,173.64946 430.742591,168.932883 C427.781838,164.216307 423.275187,160.63535 417.2225,158.189906 C405.651188,153.514792 395.125756,155.733386 385.645889,164.845752 C376.166022,173.958119 367.074773,189.284294 358.371869,210.824737 Z M85.7245,376.933 L87.5965,359.968 L86.8945,359.968 L81.2785,372.838 L62.3245,403.375 L56.9425,403.375 L36.8185,372.721 L31.3195,360.085 L30.6175,360.085 L33.0745,376.816 L33.0745,418 L16.6945,418 L16.6945,336.1 L32.3725,336.1 L56.0065,373.891 L60.4525,382.9 L61.0375,382.9 L64.8985,373.657 L87.4795,336.1 L103.0405,336.1 L103.0405,418 L85.7245,418 L85.7245,376.933 Z M121.0585,356.575 L137.4385,356.575 L137.4385,418 L121.0585,418 L121.0585,356.575 Z M118.6015,343.354 C118.6015,340.857988 119.498491,338.771508 121.2925,337.0945 C123.086509,335.417492 125.621484,334.579 128.8975,334.579 C132.251517,334.579 134.90349,335.436991 136.8535,337.153 C138.80351,338.869009 139.7785,340.935988 139.7785,343.354 C139.7785,345.616011 138.80351,347.565992 136.8535,349.204 C134.90349,350.842008 132.251517,351.661 128.8975,351.661 C125.621484,351.661 123.086509,350.842008 121.2925,349.204 C119.498491,347.565992 118.6015,345.616011 118.6015,343.354 Z M172.8895,396.472 C172.8895,402.40003 174.800481,405.364 178.6225,405.364 C179.714505,405.364 180.747995,405.266501 181.723,405.0715 C182.698005,404.876499 183.848493,404.545002 185.1745,404.077 L187.1635,416.83 C185.603492,417.532004 183.400014,418.214497 180.553,418.8775 C177.705986,419.540503 174.761515,419.872 171.7195,419.872 C166.805475,419.872 163.042013,418.780011 160.429,416.596 C157.815987,414.411989 156.5095,410.824025 156.5095,405.832 L156.5095,336.1 L172.8895,336.1 L172.8895,396.472 Z M212.3185,396.472 C212.3185,402.40003 214.229481,405.364 218.0515,405.364 C219.143505,405.364 220.176995,405.266501 221.152,405.0715 C222.127005,404.876499 223.277493,404.545002 224.6035,404.077 L226.5925,416.83 C225.032492,417.532004 222.829014,418.214497 219.982,418.8775 C217.134986,419.540503 214.190515,419.872 211.1485,419.872 C206.234475,419.872 202.471013,418.780011 199.858,416.596 C197.244987,414.411989 195.9385,410.824025 195.9385,405.832 L195.9385,336.1 L212.3185,336.1 L212.3185,396.472 Z M237.0055,356.575 L253.3855,356.575 L253.3855,418 L237.0055,418 L237.0055,356.575 Z M234.5485,343.354 C234.5485,340.857988 235.445491,338.771508 237.2395,337.0945 C239.033509,335.417492 241.568484,334.579 244.8445,334.579 C248.198517,334.579 250.85049,335.436991 252.8005,337.153 C254.75051,338.869009 255.7255,340.935988 255.7255,343.354 C255.7255,345.616011 254.75051,347.565992 252.8005,349.204 C250.85049,350.842008 248.198517,351.661 244.8445,351.661 C241.568484,351.661 239.033509,350.842008 237.2395,349.204 C235.445491,347.565992 234.5485,345.616011 234.5485,343.354 Z M268.5955,387.346 C268.5955,377.205949 271.286473,369.250029 276.6685,363.478 C282.050527,357.705971 289.73345,354.82 299.7175,354.82 C304.943526,354.82 309.50648,355.638992 313.4065,357.277 C317.306519,358.915008 320.543487,361.196485 323.1175,364.1215 C325.691513,367.046515 327.621994,370.47848 328.909,374.4175 C330.196006,378.35652 330.8395,382.665977 330.8395,387.346 C330.8395,392.338025 330.137507,396.84248 328.7335,400.8595 C327.329493,404.87652 325.301513,408.288986 322.6495,411.097 C319.997487,413.905014 316.741019,416.049993 312.88,417.532 C309.018981,419.014007 304.631525,419.755 299.7175,419.755 C294.413473,419.755 289.811519,418.936008 285.9115,417.298 C282.01148,415.659992 278.774513,413.378515 276.2005,410.4535 C273.626487,407.528485 271.715506,404.09652 270.4675,400.1575 C269.219494,396.21848 268.5955,391.948023 268.5955,387.346 Z M285.4435,387.346 C285.4435,389.920013 285.716497,392.337989 286.2625,394.6 C286.808503,396.862011 287.646994,398.831492 288.778,400.5085 C289.909006,402.185508 291.371491,403.530995 293.1655,404.545 C294.959509,405.559005 297.143487,406.066 299.7175,406.066 C309.233548,406.066 313.9915,399.826062 313.9915,387.346 C313.9915,384.615986 313.738003,382.100512 313.231,379.7995 C312.723997,377.498488 311.905006,375.509508 310.774,373.8325 C309.642994,372.155492 308.161009,370.849005 306.328,369.913 C304.494991,368.976995 302.291513,368.509 299.7175,368.509 C295.271478,368.509 291.781013,369.990985 289.246,372.955 C286.710987,375.919015 285.4435,380.715967 285.4435,387.346 Z M385.5955,418 L385.5955,384.304 C385.5955,378.999973 384.776508,375.178012 383.1385,372.838 C381.500492,370.497988 378.614521,369.328 374.4805,369.328 C370.970482,369.328 367.987012,370.28349 365.53,372.1945 C363.072988,374.10551 361.376505,376.542985 360.4405,379.507 C360.4405,385.903032 360.46,392.318468 360.499,398.7535 C360.538,405.188532 360.5575,411.603968 360.5575,418 L344.1775,418 L344.1775,356.575 L357.0475,356.575 L358.8025,365.35 L360.5575,365.35 C362.58551,362.463986 365.276483,359.98751 368.6305,357.9205 C371.984517,355.85349 376.352473,354.82 381.7345,354.82 C385.010516,354.82 387.915987,355.229496 390.451,356.0485 C392.986013,356.867504 395.091992,358.27149 396.769,360.2605 C398.446008,362.24951 399.732996,364.920983 400.63,368.275 C401.527004,371.629017 401.9755,375.840975 401.9755,380.911 L401.9755,418 L385.5955,418 Z M418.7065,402.088 C419.798505,402.634003 421.065993,403.179997 422.509,403.726 C423.952007,404.272003 425.511992,404.778998 427.189,405.247 C428.866008,405.715002 430.581991,406.104998 432.337,406.417 C434.092009,406.729002 435.866491,406.885 437.6605,406.885 C440.390514,406.885 442.515992,406.456004 444.037,405.598 C445.558008,404.739996 446.3185,403.141012 446.3185,400.801 C446.3185,398.928991 445.30451,397.544504 443.2765,396.6475 C441.24849,395.750496 438.752515,394.873004 435.7885,394.015 C433.604489,393.390997 431.323012,392.650004 428.944,391.792 C426.564988,390.933996 424.38101,389.783507 422.392,388.3405 C420.40299,386.897493 418.765006,385.006012 417.478,382.666 C416.190994,380.325988 415.5475,377.362018 415.5475,373.774 C415.5475,367.611969 417.458481,362.912516 421.2805,359.6755 C425.102519,356.438484 430.601464,354.82 437.7775,354.82 C442.457523,354.82 446.84498,355.229496 450.94,356.0485 C455.03502,356.867504 458.330488,357.822995 460.8265,358.915 L457.4335,371.317 C455.40549,370.536996 452.812016,369.737504 449.653,368.9185 C446.493984,368.099496 443.276516,367.69 440.0005,367.69 C437.270486,367.69 435.242507,368.099496 433.9165,368.9185 C432.590493,369.737504 431.9275,371.16099 431.9275,373.189 C431.9275,374.983009 432.96099,376.328496 435.028,377.2255 C437.09501,378.122504 439.610485,378.999996 442.5745,379.858 C444.758511,380.482003 447.039988,381.203496 449.419,382.0225 C451.798012,382.841504 453.96249,383.952993 455.9125,385.357 C457.86251,386.761007 459.480994,388.574489 460.768,390.7975 C462.055006,393.020511 462.6985,395.808983 462.6985,399.163 C462.6985,405.715033 460.573021,410.784982 456.322,414.373 C452.070979,417.961018 445.694543,419.755 437.1925,419.755 C432.590477,419.755 428.30052,419.345504 424.3225,418.5265 C420.34448,417.707496 417.107512,416.518008 414.6115,414.958 L418.7065,402.088 Z M16.52,4.12 C21.320024,3.2666624 26.653304,2.6000024 32.52,2.12 C38.386696,1.6399976 44.253304,1.4 50.12,1.4 C56.0933632,1.4 62.1199696,1.8533288 68.2,2.76 C74.2800304,3.6666712 79.7466424,5.4799864 84.6,8.2 C89.4533576,10.9200136 93.4266512,14.7066424 96.52,19.56 C99.6133488,24.4133576 101.16,30.83996 101.16,38.84 C101.16,45.8800352 99.82668,51.8799752 97.16,56.84 C94.49332,61.8000248 90.9466888,65.8266512 86.52,68.92 C82.0933112,72.0133488 77.0533616,74.2799928 71.4,75.72 C65.7466384,77.1600072 59.9333632,77.88 53.96,77.88 L51.24,77.88 C49.9599936,77.88 48.6000072,77.8533336 47.16,77.8 C45.7199928,77.7466664 44.3600064,77.6666672 43.08,77.56 C41.7999936,77.4533328 40.8400032,77.3466672 40.2,77.24 L40.2,115 L16.52,115 L16.52,4.12 Z M51.72,22.2 C49.4799888,22.2 47.3200104,22.2533328 45.24,22.36 C43.1599896,22.4666672 41.4800064,22.6799984 40.2,23 L40.2,56.28 C40.6266688,56.3866672 41.3199952,56.4933328 42.28,56.6 C43.2400048,56.7066672 44.253328,56.7866664 45.32,56.84 C46.386672,56.8933336 47.3733288,56.9466664 48.28,57 C49.1866712,57.0533336 49.906664,57.08 50.44,57.08 C53.5333488,57.08 56.6266512,56.8666688 59.72,56.44 C62.8133488,56.0133312 65.559988,55.1066736 67.96,53.72 C70.360012,52.3333264 72.3066592,50.440012 73.8,48.04 C75.2933408,45.639988 76.04,42.4133536 76.04,38.36 C76.04,34.9466496 75.3466736,32.2000104 73.96,30.12 C72.5733264,28.0399896 70.7333448,26.4133392 68.44,25.24 C66.1466552,24.0666608 63.533348,23.2666688 60.6,22.84 C57.666652,22.4133312 54.7066816,22.2 51.72,22.2 Z M119.56,31 L141.96,31 L141.96,115 L119.56,115 L119.56,31 Z M116.2,12.92 C116.2,9.5066496 117.426654,6.6533448 119.88,4.36 C122.333346,2.0666552 125.799978,0.92 130.28,0.92 C134.86669,0.92 138.49332,2.0933216 141.16,4.44 C143.82668,6.7866784 145.16,9.6133168 145.16,12.92 C145.16,16.0133488 143.82668,18.6799888 141.16,20.92 C138.49332,23.1600112 134.86669,24.28 130.28,24.28 C125.799978,24.28 122.333346,23.1600112 119.88,20.92 C117.426654,18.6799888 116.2,16.0133488 116.2,12.92 Z M186.76,71.96 L159.24,31 L186.44,31 L197.8,47.32 L197.64,47.16 L204.2,62.04 L210.6,47.16 L210.44,47.32 L222.6,31 L247.24,31 L219.56,71.32 L249,115 L222.44,115 L208.84,96.12 L209,96.28 L202.28,81.56 L195.24,96.28 L195.4,96.12 L181.64,115 L157,115 L186.76,71.96 Z M329,107.32 C325.373315,110.093347 320.440031,112.466657 314.2,114.44 C307.959969,116.413343 301.266702,117.4 294.12,117.4 C279.719928,117.4 269.160034,113.453373 262.44,105.56 C255.719966,97.6666272 252.36,86.8400688 252.36,73.08 C252.36,58.4665936 256.146629,47.4000376 263.72,39.88 C271.293371,32.3599624 281.959931,28.6 295.72,28.6 C300.200022,28.6 304.626645,29.1599944 309,30.28 C313.373355,31.4000056 317.26665,33.2666536 320.68,35.88 C324.09335,38.4933464 326.83999,42.0133112 328.92,46.44 C331.00001,50.8666888 332.04,56.3333008 332.04,62.84 C332.04,65.0800112 331.906668,67.53332 331.64,70.2 C331.373332,72.86668 330.920003,75.6399856 330.28,78.52 L274.28,78.52 C274.813336,85.7733696 276.919982,91.133316 280.6,94.6 C284.280018,98.066684 290.279958,99.8 298.6,99.8 C303.613358,99.8 308.11998,99.0800072 312.12,97.64 C316.12002,96.1999928 319.186656,94.7333408 321.32,93.24 L329,107.32 Z M295.4,46.2 C288.786634,46.2 283.880016,47.9866488 280.68,51.56 C277.479984,55.1333512 275.613336,59.6933056 275.08,65.24 L311.24,65.24 C311.666669,59.373304 310.600013,54.7333504 308.04,51.32 C305.479987,47.9066496 301.266696,46.2 295.4,46.2 Z M375.08,85.56 C375.08,93.6667072 377.693307,97.72 382.92,97.72 C384.413341,97.72 385.82666,97.586668 387.16,97.32 C388.49334,97.053332 390.066658,96.6000032 391.88,95.96 L394.6,113.4 C392.466656,114.360005 389.453353,115.293329 385.56,116.2 C381.666647,117.106671 377.640021,117.56 373.48,117.56 C366.759966,117.56 361.613351,116.066682 358.04,113.08 C354.466649,110.093318 352.68,105.186701 352.68,98.36 L352.68,3 L375.08,3 L375.08,85.56 Z M405.96,93.24 C407.453341,93.9866704 409.186657,94.7333296 411.16,95.48 C413.133343,96.2266704 415.266655,96.9199968 417.56,97.56 C419.853345,98.2000032 422.199988,98.7333312 424.6,99.16 C427.000012,99.5866688 429.426654,99.8 431.88,99.8 C435.613352,99.8 438.51999,99.2133392 440.6,98.04 C442.68001,96.8666608 443.72,94.680016 443.72,91.48 C443.72,88.9199872 442.333347,87.0266728 439.56,85.8 C436.786653,84.5733272 433.373354,83.3733392 429.32,82.2 C426.333318,81.3466624 423.21335,80.3333392 419.96,79.16 C416.70665,77.9866608 413.720014,76.4133432 411,74.44 C408.279986,72.4666568 406.040009,69.880016 404.28,66.68 C402.519991,63.479984 401.64,59.4266912 401.64,54.52 C401.64,46.0932912 404.253307,39.6666888 409.48,35.24 C414.706693,30.8133112 422.226618,28.6 432.04,28.6 C438.440032,28.6 444.439972,29.1599944 450.04,30.28 C455.640028,31.4000056 460.14665,32.7066592 463.56,34.2 L458.92,51.16 C456.146653,50.093328 452.600022,49.0000056 448.28,47.88 C443.959978,46.7599944 439.560022,46.2 435.08,46.2 C431.346648,46.2 428.573342,46.7599944 426.76,47.88 C424.946658,49.0000056 424.04,50.9466528 424.04,53.72 C424.04,56.1733456 425.453319,58.0133272 428.28,59.24 C431.106681,60.4666728 434.546646,61.6666608 438.6,62.84 C441.586682,63.6933376 444.70665,64.6799944 447.96,65.8 C451.21335,66.9200056 454.17332,68.4399904 456.84,70.36 C459.50668,72.2800096 461.719991,74.7599848 463.48,77.8 C465.240009,80.8400152 466.12,84.6533104 466.12,89.24 C466.12,98.2000448 463.213362,105.133309 457.4,110.04 C451.586638,114.946691 442.866725,117.4 431.24,117.4 C424.946635,117.4 419.080027,116.840006 413.64,115.72 C408.199973,114.599994 403.77335,112.973344 400.36,110.84 L405.96,93.24 Z"
            id="path-1"></path>
        <filter x="-0.6%" y="-0.6%" width="101.1%" height="101.2%" filterUnits="objectBoundingBox" id="filter-3">
            <feGaussianBlur stdDeviation="1.5" in="SourceAlpha" result="shadowBlurInner1"></feGaussianBlur>
            <feOffset dx="0" dy="1" in="shadowBlurInner1" result="shadowOffsetInner1"></feOffset>
            <feComposite in="shadowOffsetInner1" in2="SourceAlpha" operator="arithmetic" k2="-1" k3="1" result="shadowInnerInner1"></feComposite>
            <feColorMatrix values="0 0 0 0 0   0 0 0 0 0   0 0 0 0 0  0 0 0 0.5 0" type="matrix" in="shadowInnerInner1"></feColorMatrix>
        </filter>
        <filter x="-0.6%" y="-0.6%" width="101.1%" height="101.2%" filterUnits="objectBoundingBox" id="filter-4">
            <feGaussianBlur stdDeviation="1.5" in="SourceAlpha" result="shadowBlurInner1"></feGaussianBlur>
            <feOffset dx="0" dy="1" in="shadowBlurInner1" result="shadowOffsetInner1"></feOffset>
            <feComposite in="shadowOffsetInner1" in2="SourceAlpha" operator="arithmetic" k2="-1" k3="1" result="shadowInnerInner1"></feComposite>
            <feColorMatrix values="0 0 0 0 0   0 0 0 0 0   0 0 0 0 0  0 0 0 0.5 0" type="matrix" in="shadowInnerInner1"></feColorMatrix>
        </filter>
    </defs>

    <g id="Page-1" stroke="none" stroke-width="1" fill="none" fill-rule="evenodd">
        <g id="Desktop-HD" transform="translate(-139.000000, -176.000000)">
            <g id="Capture-d’écran-2018-03-30-à-10.47.51" transform="translate(139.000000, 176.000000)">
                <mask id="mask-2" fill="white">
                    <use xlink:href="#path-1"></use>
                </mask>
                <g id="pixels" style="mask: url(#mask-2)">
                </g>
                <g id="Mask">
                    <!-- <use fill-opacity="0.362601902" fill="#000000" fill-rule="evenodd" xlink:href="#path-1"></use> -->
                    <use fill="black" fill-opacity="1" filter="url(#filter-3)" xlink:href="#path-1"></use>
                    <use fill="black" fill-opacity="1" filter="url(#filter-4)" xlink:href="#path-1"></use>
                </g>
            </g>
        </g>
    </g>
</svg>
